<svg width="265" height="303" viewBox="0 0 265 303" fill="none" xmlns="http://www.w3.org/2000/svg">
<path fill-rule="evenodd" clip-rule="evenodd" d="M252.501 6.61084C251.741 4.39948 250.823 2.66851 250.459 2.76345C250.097 2.8582 249.855 2.40726 249.92 1.76149C249.995 1.0341 249.625 0.695922 248.947 0.873044C248.346 1.03028 247.824 1.47059 247.788 1.85273C247.7 2.77772 237.862 15.1997 237.048 15.4124C236.698 15.504 236.095 16.0945 235.709 16.7242C235.323 17.3538 234.209 18.5029 233.235 19.2786C232.261 20.0538 231.746 20.9517 232.093 21.2742C232.464 21.6205 232.165 21.7999 231.361 21.7138C230.358 21.6057 230.226 21.7773 230.857 22.3645C231.495 22.9594 231.349 23.1226 230.282 23.0078C229.018 22.8718 229.005 22.972 230.172 23.8594C230.898 24.4123 231.175 24.7187 230.787 24.5404C229.336 23.8736 228.006 27.1091 228.955 28.9952C229.505 30.0901 229.572 31.1324 229.122 31.6052C228.66 32.0909 228.474 32.0559 228.636 31.5142C228.781 31.0314 228.392 29.9659 227.769 29.1466C227.147 28.3278 226.728 28.0634 226.837 28.5583C226.947 29.0538 226.495 29.6 225.834 29.7728C224.841 30.0325 224.841 29.669 225.836 27.6772L227.038 25.2675L225.555 27.4802C224.738 28.6978 224.316 29.9221 224.617 30.2017C224.916 30.4813 224.624 30.8511 223.967 31.023C223.21 31.2207 223.025 31.6799 223.462 32.2735C223.842 32.789 223.854 33.5247 223.49 33.9074C223.088 34.3294 222.939 34.228 223.113 33.6499C223.704 31.6845 222.828 32.9328 221.814 35.5044C221.234 36.9726 221.034 37.8858 221.369 37.5337C222.77 36.0628 223.397 39.5157 222.099 41.5541L220.749 43.674L220.734 41.7729C220.721 39.9516 220.695 39.9675 220.127 42.1403C219.801 43.3875 219.86 44.711 220.257 45.0811C220.671 45.4665 220.607 45.6418 220.106 45.4922C218.788 45.0961 218.358 46.6974 217.723 54.3699C216.625 67.6263 212.348 78.9214 205.902 85.5826C203.538 88.0254 200.893 90.4693 200.023 91.0143C199.154 91.5585 195.32 94.8146 191.504 98.2503C187.687 101.686 184.485 104.203 184.386 103.844C184.081 102.733 188.051 96.5517 193.69 89.3594C196.656 85.5768 199.307 82.4228 199.58 82.3513C200.795 82.0339 204.382 76.2107 205.054 73.465C206.919 65.8459 205.093 49.4964 201.798 44.3165C201.034 43.1157 199.365 39.8604 198.09 37.0815C196.814 34.3027 195.361 32.0036 194.861 31.9719C194.362 31.9402 193.699 33.0825 193.389 34.5092C193.078 35.9361 191.722 39.8945 190.374 43.3051C189.027 46.7163 188.004 49.7945 188.101 50.1457C188.197 50.4968 187.76 51.5719 187.13 52.5351C186.5 53.4983 185.887 55.1686 185.768 56.2474C185.296 60.5254 185.774 71.4246 186.825 80.3525C187.575 86.7279 186.4 94.3189 184.005 98.5825C183.043 100.293 182.309 101.884 182.373 102.117C182.503 102.59 175.779 114.679 173.575 117.936L172.16 120.026L171.657 116.143C170.44 106.744 172.754 91.7439 176.81 82.7322C177.973 80.1492 179.745 71.128 179.83 67.361C179.857 66.1172 179.535 61.9157 179.113 58.0244C178.692 54.133 178.17 49.1098 177.954 46.8614C177.299 40.0503 176.819 37.7492 175.652 35.8377C174.978 34.7331 174.848 34.1036 175.322 34.2464C175.773 34.382 175.641 32.7863 175.009 30.488C174.368 28.1535 173.677 26.7409 173.347 27.0887C173.035 27.4154 172.732 27.0451 172.673 26.2653C172.549 24.6465 169 21.0111 167.841 21.3143C167.416 21.4252 167.327 21.7556 167.641 22.0483C167.956 22.3415 167.751 22.9119 167.187 23.3169C166.6 23.7361 166.461 24.462 166.861 25.0051C167.247 25.5296 167.215 26.0492 166.791 26.1601C166.366 26.2712 166.342 26.7996 166.736 27.3351C167.132 27.873 166.982 29.1159 166.4 30.1168C165.821 31.1124 165.68 32.2557 166.085 32.658C166.49 33.061 166.49 33.2209 166.086 33.0143C165.361 32.6447 163.999 38.561 164.409 40.307C164.524 40.8009 164.374 41.2686 164.074 41.347C163.774 41.4254 162.998 43.5994 162.35 46.1785C161.702 48.7571 160.724 52.1932 160.175 53.814C158.869 57.6756 158.672 63.1945 159.612 69.6468C160.394 75.0151 161.382 77.1249 167.995 87.5606C170.843 92.0536 171.592 95.0457 170.822 98.8569C170.492 100.495 169.662 107.086 168.978 113.502C168.295 119.919 167.553 126.002 167.33 127.021C166.86 129.163 159.15 139.84 151.433 149.034C148.504 152.524 145.601 155.988 144.982 156.732C143.24 158.826 142.91 157.957 143.641 153.206C144.511 147.548 143.964 141.32 142.159 136.362C141.367 134.186 139.631 129.05 138.302 124.948C134.391 112.885 126.985 102.792 116.771 95.6078C112.87 92.8636 101.05 90.1084 96.0693 90.7826C90.9229 91.4796 81.8894 93.7756 73.8929 96.4192C67.0967 98.666 66.271 99.1242 63.7137 102.064C62.1825 103.824 60.9858 105.47 61.0541 105.721C61.1221 105.971 62.1266 106.164 63.2854 106.149C64.4444 106.134 66.5605 106.59 67.9873 107.163C69.414 107.737 75.9047 109.5 82.4113 111.084C93.8976 113.879 99.8826 114.51 104.198 113.382C106.262 112.842 108.523 112.756 116.871 112.897C124.976 113.035 127.132 113.627 131.195 116.833L135.099 119.912L136.723 127.231C137.616 131.256 139.163 136.18 140.16 138.172C142.391 142.631 142.569 146.654 140.941 155.88C139.967 161.406 138.931 163.881 133.917 172.661C130.085 179.371 126.952 183.898 124.928 185.65C123.219 187.129 117.455 192.612 112.12 197.834C98.8906 210.783 99.6535 210.124 99.8185 208.451C99.8945 207.688 101.058 203.861 102.403 199.948C106.977 186.651 107.073 185.338 104.281 174.289L101.838 164.618L100.006 164.939C98.7722 165.155 98.2733 165.622 98.4779 166.367C98.6929 167.149 99.1653 167.231 100.093 166.646C101.037 166.051 101.493 166.143 101.722 166.976C101.897 167.612 101.686 168.026 101.253 167.896C100.82 167.766 100.284 168.314 100.063 169.114C99.442 171.356 97.8797 169.544 97.7414 166.421C97.6777 164.988 97.3457 163.936 96.9861 164.03C96.633 164.122 96.4316 164.518 96.539 164.909C96.6463 165.3 96.4112 165.704 96.0165 165.807C95.072 166.054 94.3672 163.429 95.1867 162.716C95.537 162.412 95.435 162.357 94.9608 162.594C94.4395 162.855 94.4064 163.97 94.8773 165.415C97.4363 173.271 98.2227 175.865 98.9016 178.704C99.3184 180.446 99.4279 181.738 99.1458 181.577C98.6182 181.274 96.9324 177.615 95.6161 173.912C95.207 172.761 94.5204 171.995 94.0899 172.209C93.5673 172.468 93.2555 171.854 93.1525 170.359C93.0475 168.842 92.7129 168.195 92.1135 168.351C91.6226 168.48 91.2828 168.06 91.3499 167.408C91.4156 166.762 91.1568 166.316 90.7749 166.416C90.3924 166.516 89.8328 165.719 89.5318 164.645C88.8138 162.087 87.5534 161.002 86.3237 161.882C85.0683 162.781 83.494 160.265 83.9876 158.146C84.4862 156.004 83.364 155.231 81.9424 156.738C81.2662 157.455 81.0659 158.387 81.4684 158.942C81.8522 159.471 80.8865 159.039 79.3221 157.981C76.2224 155.884 75.8585 155.397 76.7205 154.491C77.0346 154.161 76.9465 153.423 76.5254 152.85C75.927 152.039 76.114 151.809 77.3764 151.807C78.4065 151.804 79.0375 151.376 79.114 150.627C79.2167 149.626 79.4595 149.546 80.7482 150.093C82.1085 150.671 82.1313 150.639 80.9727 149.776C80.2639 149.248 79.7114 148.178 79.744 147.397C79.8305 145.359 73.4226 135.251 71.5005 134.392C70.6105 133.994 70.3409 133.766 70.9027 133.884C71.4637 134.003 71.8303 133.761 71.7166 133.347C71.603 132.933 71.0513 132.714 70.49 132.861C69.918 133.01 68.9784 132.169 68.3497 130.944C67.7338 129.743 66.5452 128.138 65.7094 127.377C64.8736 126.617 64.3088 125.79 64.4539 125.539C64.7571 125.019 67.9919 128.381 69.535 130.82C70.2323 131.922 70.477 132.037 70.2834 131.17C69.9319 129.596 66.236 125.455 64.4571 124.641C63.3672 124.143 62.9791 124.8 62.0441 128.728C61.4312 131.303 61.2118 133.792 61.5563 134.26C61.9011 134.728 61.8589 135.014 61.4622 134.895C60.7664 134.686 59.8334 140.495 60.294 142.172C60.418 142.624 59.6534 144.77 58.5949 146.94C57.5356 149.111 56.7304 151.999 56.8053 153.359C56.8804 154.719 56.8339 156.202 56.703 156.656C56.5714 157.109 56.4873 157.817 56.5164 158.228C56.5449 158.64 56.744 161.502 56.9594 164.589C57.1748 167.675 57.2456 171.219 57.1173 172.463C56.9881 173.707 57.0804 174.839 57.3215 174.977C57.5632 175.115 57.4187 175.815 57.001 176.532C56.1313 178.029 57.5932 184.276 59.0028 185.084C59.5049 185.372 60.7791 188.622 61.8339 192.306C63.6032 198.485 63.9757 199.192 66.6439 201.42C68.235 202.749 69.7703 204.687 70.0557 205.726C70.3411 206.765 71.1807 207.962 71.9211 208.387C73.4968 209.29 74.621 215.237 73.6202 217.377C73.2861 218.093 72.6978 220.06 72.3138 221.748C71.9288 223.436 69.5691 228.49 67.0688 232.98L62.5234 241.142L51.7806 248.331C45.8719 252.286 39.4419 256.642 37.4913 258.012C34.8034 259.899 34.2592 260.122 35.2438 258.932C35.958 258.068 36.457 257.047 36.3518 256.664C36.1738 256.016 37.7716 252.518 42.9093 242.305C44.0453 240.047 45.6373 236.312 46.4468 234.005C47.2564 231.698 48.4498 228.327 49.0981 226.514C49.7471 224.701 50.2869 221.303 50.2987 218.962C50.3098 216.621 50.3848 214.175 50.4649 213.526C50.8241 210.61 48.8125 202.708 46.5562 198.178C45.6364 196.33 44.9569 194.573 45.0473 194.273C45.1372 193.972 44.4592 192.767 43.5408 191.594C42.6222 190.42 40.9729 186.957 39.8766 183.898C37.2765 176.647 32.3591 164.044 31.7199 162.996C30.6935 161.312 29.9518 162.67 28.3252 169.217C24.886 183.054 24.9709 195.763 28.5858 208.413C29.7803 212.592 31.0794 218.498 31.4727 221.538C31.8661 224.578 32.5779 229.192 33.0541 231.792C34.2973 238.576 34.287 242.768 33.0142 247.035C32.4008 249.093 31.8329 251.999 31.7526 253.494C31.5109 257.978 29.0921 262.066 23.0348 268.23C8.48683 283.036 -0.373456 298.679 0.81615 307.459C1.62252 313.409 3.57535 311.094 7.68103 299.32C9.33786 294.569 11.9976 288.254 13.5915 285.288C16.6027 279.682 23.3149 272.239 29.2878 267.879C33.919 264.499 51.3064 253.646 54.8142 251.946C57.7325 250.531 68.5628 242.072 76.2321 235.217C78.6099 233.092 83.8526 228.432 87.883 224.862L95.2103 218.37L101.28 217.54C108.177 216.596 113.39 217.722 116.376 220.799C117.359 221.812 119.404 223.569 120.92 224.704C122.436 225.839 125.486 228.537 127.699 230.699C133.198 236.075 147.338 243.264 155.52 244.845C162.794 246.25 165.931 246.24 176.937 244.776C181.631 244.152 186.072 243.709 186.807 243.792C187.778 243.903 188.296 243.24 188.704 241.365L189.266 238.787L183.122 235.557C179.744 233.781 176.417 232.283 175.729 232.228C175.042 232.174 173.788 231.372 172.944 230.447C168.347 225.411 149.05 214.163 139.086 210.711C134.517 209.128 134.099 209.129 125.25 210.748C120.231 211.666 115.102 212.474 113.852 212.543C112.602 212.613 108.911 213.294 105.65 214.059C102.389 214.824 99.4622 215.301 99.1464 215.12C98.4826 214.74 104.237 208.312 106.541 206.86C107.394 206.322 109.329 204.645 110.841 203.133L113.589 200.382L129.03 196.383C144.233 192.447 144.551 192.398 149.68 193.123C154.588 193.818 157.873 195.08 165.023 199.017C166.693 199.936 169.497 201.17 171.255 201.758C173.012 202.346 176.603 203.551 179.235 204.434C181.867 205.317 184.355 205.953 184.765 205.845C185.515 205.649 194.779 207.386 196.434 208.033C196.925 208.225 198.817 208.452 200.639 208.538C202.461 208.623 204.021 208.949 204.107 209.262C204.368 210.214 211.575 210.123 219.269 209.07C225.554 208.21 227.044 207.776 230.207 205.89C232.938 204.26 236.418 203.082 243.899 201.254C252.212 199.222 254.355 198.458 256.426 196.792C259.325 194.457 259.749 193.489 259.034 190.826C258.623 189.295 257.86 188.741 255.442 188.21C253.753 187.84 250.197 186.549 247.539 185.343C236.589 180.374 236.913 180.481 233.936 180.859C233.697 180.889 233.383 180.517 233.238 180.03C232.399 177.223 222.157 167.163 220.538 167.557C220.043 167.678 218.815 167.305 217.811 166.73C216.807 166.154 216.025 165.827 216.073 166.004C216.122 166.18 214.752 166.096 213.029 165.816C209.383 165.225 203.821 162.235 202.828 160.334C202.449 159.609 201.777 159.198 201.334 159.418C200.891 159.639 200.44 159.499 200.333 159.108C200.226 158.717 200.407 158.327 200.736 158.241C201.065 158.155 201.203 157.605 201.041 157.018C200.88 156.432 200.415 156.039 200.006 156.146C199.56 156.263 199.512 155.915 199.887 155.27C200.795 153.708 190.982 151.228 183.61 151.156C178.816 151.109 176.62 151.48 171.553 153.193C168.144 154.346 164.75 155.851 164.01 156.539C163.268 157.226 160.742 158.746 158.395 159.914C156.048 161.083 151.184 164.524 147.585 167.561C143.986 170.599 140.874 173.128 140.668 173.182C140.278 173.284 134.79 177.641 133.836 178.605C132.696 179.759 133.983 177.025 136.381 173.202C140.336 166.898 144.427 161.403 152.757 151.204L160.513 141.708L172.016 138.701C184.505 135.436 188.018 135.203 197.721 136.992C200.395 137.486 203.318 137.891 204.216 137.893C205.114 137.895 207.923 139.029 210.456 140.412C212.99 141.795 216.09 143.149 217.343 143.42C218.596 143.691 221.855 144.481 224.584 145.175C231.866 147.028 238.736 148.307 239.851 148.015C240.388 147.875 242.079 148.029 243.609 148.356C245.667 148.797 248.166 148.492 253.212 147.179C265.296 144.038 267.725 141.806 261.249 139.795C259.438 139.232 257.657 138.494 257.291 138.154C256.925 137.813 255.918 137.715 255.051 137.935C254.185 138.155 252.542 138.089 251.402 137.786C250.261 137.484 247.765 136.903 245.855 136.497C243.945 136.09 242.315 135.51 242.232 135.208C242.149 134.905 239.984 134.274 237.423 133.803C234.861 133.333 232.542 132.768 232.27 132.546C230.916 131.443 216.551 130.208 215.684 131.119C215.188 131.64 208.082 131.267 206.607 130.643C206.042 130.404 203.656 130.536 201.304 130.938C198.952 131.339 194.938 131.723 192.384 131.792C189.831 131.861 184.858 132.66 181.333 133.567C177.809 134.474 174.43 135.304 173.824 135.411C173.219 135.518 170.387 136.469 167.53 137.526C162.734 139.3 162.387 139.337 163.001 138.006C163.368 137.213 164.871 135.202 166.342 133.537C167.813 131.871 170.091 128.749 171.404 126.599C175.163 120.444 178.659 118.076 188.269 115.179C194.931 113.17 197.843 112.663 204.052 112.429C214.773 112.024 220.267 110.859 227.399 107.478C234.02 104.339 241.559 99.8112 242.701 98.2867C243.1 97.754 244.754 96.2131 246.376 94.8641C250.224 91.6615 253.267 86.9939 258.819 75.7754C262.189 68.9676 263.083 66.4808 262.286 66.1353C260.23 65.245 248.944 67.0433 242.335 69.3152C231.976 72.8757 220.481 80.367 214.204 87.6485C212.734 89.3531 209.507 94.1222 207.033 98.2464C200.976 108.343 197.757 111.133 189.2 113.705C185.59 114.789 181.316 116.227 179.702 116.9C178.089 117.572 176.692 117.843 176.598 117.501C176.126 115.782 182.957 108.115 191.592 100.673C205.704 88.5112 211.179 82.638 213.577 77.0876C214.353 75.2915 215.248 73.7387 215.565 73.6359C215.883 73.5339 216.981 72.3736 218.007 71.0579C219.032 69.7421 220.427 68.5204 221.107 68.3427C221.786 68.165 222.91 67.4933 223.605 66.8499C224.539 65.9841 225.347 65.7926 226.712 66.1124C228.148 66.4495 229.43 66.1126 232.505 64.5904C237.013 62.3589 239.515 60.5077 238.855 59.8919C238.605 59.6598 239.236 59.4127 240.257 59.3432C241.502 59.2577 242.155 58.8021 242.241 57.9567C242.312 57.2638 242.661 56.7848 243.016 56.8915C244.587 57.3631 252.202 45.7158 251.274 44.2601C251.07 43.9401 251.26 43.7846 251.695 43.9155C252.131 44.0461 252.928 43.1292 253.466 41.8776C254.224 40.1176 254.198 39.4279 253.353 38.8351C252.495 38.2334 252.513 38.0955 253.434 38.1945C254.677 38.3281 256.266 35.8297 255.293 35.2719C254.978 35.0914 255.112 34.462 255.59 33.873C256.069 33.2847 256.269 31.8266 256.035 30.6343C255.801 29.4415 255.862 28.1607 256.171 27.788C256.48 27.4156 256.342 25.6527 255.865 23.8704C255.387 22.0883 255.238 20.566 255.534 20.4871C255.83 20.4082 255.799 19.3504 255.465 18.1355C255.006 16.4643 254.624 16.0948 253.894 16.6177C253.364 16.9972 252.845 16.998 252.741 16.6198C252.637 16.2409 253.116 15.7781 253.805 15.592C254.764 15.332 254.795 15.17 253.935 14.9018C253.032 14.6192 253.012 14.4089 253.831 13.822C254.391 13.4204 254.632 12.5384 254.366 11.8613C254.1 11.1848 253.26 8.8222 252.501 6.61084ZM255.004 27.1195C254.723 26.959 254.786 26.3278 255.144 25.7167C255.662 24.8347 255.766 24.8951 255.655 26.0098C255.578 26.7812 255.285 27.2806 255.004 27.1195ZM246.42 16.0102C246.025 16.1134 245.663 16.0571 245.616 15.8844C245.568 15.7116 245.798 15.2888 246.127 14.9439C246.455 14.599 246.817 14.6561 246.931 15.0698C247.044 15.4835 246.814 15.907 246.42 16.0102ZM244.898 21.0817C244.4 20.3387 244.241 20.3802 243.888 21.348C243.547 22.2789 243.474 22.2783 243.499 21.3452C243.516 20.7122 243.915 20.1789 244.386 20.1609C244.858 20.1428 245.155 19.8076 245.047 19.4166C244.94 19.0257 245.187 18.6183 245.595 18.5116C246.072 18.387 246.186 18.9712 245.914 20.1402C245.619 21.4075 245.309 21.6949 244.898 21.0817ZM252.644 42.5741C251.962 42.7522 251.035 40.7142 251.551 40.1725C251.865 39.8428 252.303 40.232 252.524 41.0367C252.745 41.8414 252.799 42.5336 252.644 42.5741ZM252.211 77.7118C251.816 77.815 251.893 77.4628 252.381 76.9291C252.869 76.3954 253.591 75.8744 253.986 75.7712C254.381 75.668 254.304 76.0202 253.816 76.5538C253.328 77.0875 252.606 77.6086 252.211 77.7118ZM245.784 53.6087C244.532 54.7642 244.464 54.7483 245.063 53.4429C245.426 52.6508 246.007 51.9283 246.353 51.8378C247.45 51.5511 247.212 52.2906 245.784 53.6087ZM238.913 35.5942C238.018 36.7754 237.986 36.7571 238.568 35.3964C239.181 33.9669 239.667 33.4368 239.828 34.0218C239.868 34.169 239.456 34.877 238.913 35.5942ZM245.625 83.8419C244.668 84.5957 243.846 85.0645 243.796 84.8839C243.686 84.4823 249.63 79.1712 250.416 78.9697C251.118 78.7892 247.96 82.0011 245.625 83.8419ZM231.781 50.0128C231.465 50.3447 231.039 50.5216 230.835 50.4042C230.631 50.2877 232.048 47.5683 233.983 44.3622L237.501 38.5326L234.929 43.9708C233.514 46.9616 232.098 49.6802 231.781 50.0128ZM235.601 62.1207C235.32 61.9595 235.609 61.458 236.243 61.0057C237.16 60.353 237.265 60.4125 236.755 61.2987C236.401 61.9124 235.882 62.282 235.601 62.1207ZM223.057 36.1234C222.484 36.5328 222.164 36.4886 222.305 36.0206C222.439 35.5709 222.854 35.1236 223.225 35.0264C224.257 34.7566 224.17 35.3257 223.057 36.1234ZM236.701 91.9602C233.591 94.7222 231.623 95.3867 234.413 92.7321C235.922 91.296 237.396 90.0429 237.687 89.9478C238.789 89.5881 238.339 90.504 236.701 91.9602ZM226.569 57.8693C225.673 59.0505 225.641 59.0322 226.224 57.6715C226.837 56.2419 227.322 55.7118 227.483 56.2969C227.524 56.444 227.113 57.1519 226.569 57.8693ZM229.837 97.1519C229.556 96.9908 229.845 96.4892 230.479 96.037C231.396 95.3843 231.501 95.4438 230.991 96.33C230.637 96.9436 230.118 97.3133 229.837 97.1519ZM216.301 105.913C215.754 105.846 216.113 105.579 217.1 105.321C218.087 105.063 218.535 105.119 218.096 105.444C217.656 105.771 216.849 105.982 216.301 105.913ZM240.623 192.86C238.938 192.402 239.348 192.078 241.341 192.293C242.049 192.368 242.519 192.62 242.384 192.851C242.25 193.083 241.457 193.087 240.623 192.86ZM236.986 193.413C236.251 193.334 235.767 193.067 235.911 192.82C236.054 192.573 236.774 192.435 237.508 192.514C238.243 192.593 238.727 192.86 238.583 193.107C238.44 193.354 237.721 193.492 236.986 193.413ZM197.104 60.522L196.878 62.1049L196.448 60.6935C196.211 59.9173 196.199 58.7204 196.421 58.0339C196.779 56.9246 196.852 56.9056 197.077 57.8624C197.217 58.4545 197.229 59.6513 197.104 60.522ZM197.229 65.6323C196.896 65.1961 196.676 64.3963 196.741 63.8551C196.806 63.3147 197.079 63.6716 197.347 64.6491C197.615 65.6266 197.562 66.0694 197.229 65.6323ZM196.958 75.4427C196.498 77.6445 195.971 79.4853 195.786 79.5336C195.383 79.639 196.219 74.3126 196.966 72.0074C197.853 69.2781 197.848 71.1849 196.958 75.4427ZM213.979 162.734C212.569 161.708 212.561 161.735 213.826 163.2C215.47 165.102 215.913 165.419 215.665 164.516C215.56 164.134 214.801 163.333 213.979 162.734ZM219.487 182.292C219.338 182.331 218.619 181.919 217.889 181.376C216.687 180.482 216.706 180.451 218.087 181.037C219.537 181.653 220.077 182.138 219.487 182.292ZM205.848 156.054L201.591 153.838L201.765 156.073C201.982 158.862 202.265 159.095 203.44 157.453C204.571 155.869 204.448 155.864 207.692 157.634C209.139 158.422 210.273 158.888 210.213 158.669C210.153 158.451 208.188 157.274 205.848 156.054ZM209.263 162.727C209.197 163.293 209.391 163.9 209.694 164.074C209.997 164.247 210.051 163.784 209.815 163.043C209.553 162.223 209.336 162.099 209.263 162.727ZM173.049 35.953C171.846 36.2673 171.083 34.5286 172 33.5658C172.338 33.2108 172.537 33.4644 172.466 34.161C172.397 34.8296 172.698 35.2827 173.135 35.1684C173.573 35.0542 173.974 35.1207 174.028 35.3162C174.081 35.5116 173.641 35.7982 173.049 35.953ZM169.239 26.2822C168.732 25.8104 168.435 25.2221 168.579 24.975C168.723 24.7279 169.255 24.9119 169.761 25.3837C170.268 25.8555 170.565 26.4437 170.421 26.6908C170.277 26.9379 169.745 26.754 169.239 26.2822ZM170.41 30.5474C170.015 30.6506 169.654 30.5943 169.606 30.4216C169.559 30.2488 169.789 29.826 170.117 29.4811C170.446 29.1362 170.808 29.1933 170.921 29.607C171.035 30.0207 170.805 30.4443 170.41 30.5474ZM173.534 41.9215C173.139 42.0247 172.723 41.7701 172.609 41.3563C172.496 40.9426 172.78 40.7167 173.241 40.8552C173.702 40.9937 174.118 41.2476 174.166 41.4204C174.213 41.5931 173.929 41.8183 173.534 41.9215ZM211.081 188.562C210.408 188.489 209.97 188.237 210.107 188.002C210.244 187.767 210.759 187.694 211.25 187.843C212.588 188.244 212.478 188.712 211.081 188.562ZM194.722 157.165C193.415 156.873 192.749 156.527 193.242 156.395C193.734 156.264 194.006 155.676 193.845 155.09C193.684 154.504 194.058 153.891 194.677 153.73C195.459 153.525 195.783 153.886 195.74 154.912C195.705 155.724 196.095 156.513 196.605 156.666C198.559 157.253 196.982 157.67 194.722 157.165ZM200.744 172.807C199.491 172.233 197.773 172.355 189.317 173.616C180.209 174.975 175.555 176.567 153.669 185.804C151.131 186.875 141.849 189.628 133.041 191.922L117.026 196.091L120.369 192.856C122.207 191.077 125.2 188.108 127.019 186.259C128.838 184.411 132.996 181.275 136.259 179.291C139.522 177.307 144.684 173.381 147.73 170.566C153.874 164.887 159.184 161.635 166.013 159.367C170.503 157.876 170.604 157.883 174.49 159.908C180.442 163.011 185.035 164.659 185.72 163.939C186.059 163.584 186.22 163.678 186.079 164.147C185.938 164.617 187.253 165.479 189.001 166.063C190.75 166.647 194.339 168.407 196.978 169.976C201.609 172.729 203.217 173.938 200.744 172.807ZM199.326 188.712C197.323 188.539 194.964 188.295 194.084 188.171C193.203 188.047 190.799 187.798 188.74 187.619C186.68 187.439 184.917 187.005 184.82 186.653C184.718 186.281 185.246 186.151 186.081 186.341C186.871 186.522 189.454 186.564 191.821 186.434C194.189 186.305 197.976 186.553 200.239 186.985C202.501 187.418 204.769 187.71 205.279 187.634C205.789 187.558 205.477 187.84 204.587 188.262C203.695 188.683 201.328 188.886 199.326 188.712ZM190.81 153.332C190.149 153.03 189.453 153.048 189.264 153.373C189.075 153.698 188.818 153.591 188.693 153.136C188.567 152.679 188.63 152.263 188.834 152.209C189.557 152.02 192.457 153.115 192.237 153.495C192.113 153.707 191.471 153.634 190.81 153.332ZM190.382 155.678C189.103 155.32 189.157 155.237 190.767 155.086C193.394 154.84 193.517 154.868 192.645 155.518C192.219 155.835 191.201 155.908 190.382 155.678ZM161.853 65.7054C161.374 65.0749 161.048 65.1379 160.45 65.9756C159.914 66.7242 159.603 66.8238 159.458 66.2935C159.341 65.8684 159.797 65.0093 160.472 64.3842C161.536 63.399 161.75 63.4656 162.088 64.8875C162.302 65.7891 162.196 66.1574 161.853 65.7054ZM181.737 187.331C181.19 187.264 181.549 186.997 182.536 186.739C183.523 186.481 183.971 186.537 183.532 186.862C183.092 187.189 182.285 187.4 181.737 187.331ZM177.114 187.342C174.642 187.084 173.46 186.122 175.2 185.784C176.382 185.554 179.561 186.745 179.26 187.306C179.187 187.441 178.221 187.457 177.114 187.342ZM197.321 274.183C196.926 274.287 196.691 274.691 196.798 275.082C196.906 275.473 197.317 275.708 197.711 275.605C198.106 275.502 198.341 275.098 198.234 274.707C198.126 274.316 197.716 274.08 197.321 274.183ZM137.916 90.0907C137.176 90.284 136.953 90.8416 137.317 91.5806C138.02 93.0029 139.268 92.5753 139.168 90.9465C139.127 90.267 138.605 89.9104 137.916 90.0907ZM161.837 234.931C157.297 233.702 148.744 228.501 144.92 224.643C144.426 224.144 148.559 226.32 154.105 229.48C159.652 232.64 164.242 235.316 164.307 235.428C164.372 235.539 163.26 235.315 161.837 234.931ZM161.673 269.026C161.081 269.181 160.684 269.627 160.792 270.018C160.899 270.409 161.471 270.603 162.063 270.448C162.656 270.293 163.052 269.846 162.945 269.456C162.837 269.065 162.265 268.871 161.673 269.026ZM131.431 219.499C125.033 217.471 124.735 217.005 130.11 217.437C132.978 217.667 138.23 220.196 137.71 221.096C137.604 221.279 134.778 220.561 131.431 219.499ZM95.1587 97.455C93.7259 96.9999 93.7224 96.9787 95.0787 97.0409C95.8634 97.0773 96.8899 97.0337 97.3598 96.9436C97.976 96.826 97.9984 96.9412 97.4397 97.3578C97.0137 97.6749 95.9874 97.7192 95.1587 97.455ZM97.8284 158.139C97.4107 158.013 97.4132 158.507 97.8349 159.236C98.7293 160.781 99.2742 160.863 98.8701 159.392C98.7152 158.828 98.2467 158.265 97.8284 158.139ZM131.523 285.289C130.931 285.444 130.534 285.89 130.642 286.281C130.749 286.672 131.321 286.866 131.914 286.711C132.506 286.556 132.902 286.109 132.795 285.718C132.688 285.327 132.115 285.134 131.523 285.289ZM75.2744 99.3854C74.3393 99.4477 75.0282 99.1191 76.8046 98.6547C78.5809 98.1903 79.3461 98.1388 78.5042 98.541C77.6621 98.9425 76.2095 99.3223 75.2744 99.3854ZM88.6921 152.442L85.3279 150.696L88.5332 152.716C91.5171 154.595 92.2648 154.948 92.1157 154.405C92.0831 154.286 90.5422 153.403 88.6921 152.442ZM121.24 268.548C120.57 267.047 118.668 264.459 117.013 262.796C115.358 261.133 113.356 259.086 112.563 258.245C111.771 257.405 110.323 256.538 109.346 256.32C108.368 256.101 106.439 255.178 105.059 254.269C102.213 252.393 93.9152 249.406 92.5465 249.763C92.0491 249.893 89.9519 249.733 87.887 249.407C83.3087 248.686 82.8794 248.694 72.2305 249.71C67.5402 250.157 62.8246 250.95 61.7523 251.471C60.5287 252.066 59.72 252.121 59.5822 251.619C59.4614 251.179 59.0396 250.904 58.6449 251.007C57.3723 251.34 58.4383 253.229 59.9399 253.302C62.1619 253.41 72.0737 260.609 76.1726 265.092C80.8296 270.184 88.2495 275.297 96.5696 279.148C101.293 281.335 105.23 283.385 105.318 283.704C105.406 284.024 108.514 284.944 112.226 285.749C118.653 287.143 119.108 287.137 121.774 285.614C124.202 284.228 124.538 283.699 124.31 281.629C123.803 277.033 122.447 271.254 121.24 268.548ZM107.485 225.772C106.955 226.153 106.643 226.909 106.793 227.454C107.163 228.801 108.317 228.4 108.474 226.87C108.655 225.102 108.563 225.001 107.485 225.772ZM68.0973 101.262C67.1621 101.324 67.851 100.995 69.6274 100.531C71.4038 100.067 72.1689 100.015 71.327 100.417C70.4849 100.819 69.0323 101.199 68.0973 101.262ZM98.3406 208.629C96.7859 213.192 95.787 214.63 93.8183 215.145C92.9937 215.36 88.5486 218.787 83.9412 222.761C79.3337 226.733 74.0608 231.185 72.224 232.654L68.8843 235.324L70.1176 232.552C75.1358 221.277 80.6006 208.107 81.3069 205.589C81.7717 203.932 82.3306 202.186 82.5491 201.709C82.7676 201.233 83.3214 199.059 83.7801 196.879C84.2391 194.698 84.9635 191.423 85.3898 189.6C85.8164 187.778 86.027 185.638 85.8575 184.844C85.6879 184.05 85.7406 181.828 85.9747 179.905L86.4006 176.408L87.7532 179.44C88.4974 181.107 90.4826 184.456 92.1643 186.882C93.8467 189.308 95.1811 191.702 95.1307 192.202C95.0797 192.702 95.8963 194.43 96.9451 196.041C99.4683 199.918 99.9201 203.994 98.3406 208.629ZM84 150.25C83.5085 150.102 82.9937 150.174 82.8568 150.41C82.7199 150.645 83.1583 150.897 83.8313 150.97C85.2279 151.119 85.3379 150.652 84 150.25ZM113.919 271.605C111.82 269.513 111.404 268.056 113.152 268.919C113.867 269.272 114.673 270.36 114.943 271.337L115.432 273.114L113.919 271.605ZM85.5532 170.765C85.3621 170.641 84.5789 168.988 83.8145 167.092C82.8762 164.768 82.7812 164.173 83.5216 165.264C84.6187 166.881 86.2114 171.193 85.5532 170.765ZM79.2905 155.322C78.9621 155.667 78.5952 155.592 78.4751 155.155C78.3551 154.717 77.9596 154.672 77.5959 155.054C77.1356 155.537 77.2806 155.855 78.0767 156.104C79.6232 156.587 80.3428 156.353 80.0943 155.448C79.9806 155.034 79.6188 154.977 79.2905 155.322ZM106.379 264.956C103.879 263.445 101.953 262.006 102.097 261.758C102.241 261.51 102.827 261.781 103.399 262.361C103.971 262.942 104.761 263.332 105.155 263.229C106.087 262.986 110.344 265.798 110.671 266.874C110.81 267.33 108.879 266.467 106.379 264.956ZM76.8839 150.484C76.3498 150.867 75.6842 150.614 75.2502 149.863C74.6313 148.794 74.7611 148.653 76.081 148.964C77.9488 149.401 78.0711 149.633 76.8839 150.484ZM89.0806 211.812C88.4655 211.972 88.0495 212.424 88.1569 212.815C88.2643 213.206 88.6557 213.447 89.0275 213.349C89.3993 213.252 89.8145 212.801 89.9512 212.346C90.0878 211.891 89.6957 211.651 89.0806 211.812ZM97.101 259.958C91.7191 257.736 91.1009 257.275 94.8795 258.3C98.8725 259.384 101.397 260.519 101.069 261.083C100.936 261.31 99.1511 260.804 97.101 259.958ZM72.8011 169.462C73.2335 171.944 73.4724 174.771 73.3318 175.747C73.1514 177 72.8686 176.237 72.3655 173.133C71.9746 170.721 71.3874 167.446 71.0605 165.855C69.7415 159.428 69.7367 159.149 70.9894 161.683C71.6315 162.982 72.1253 164.248 72.086 164.497C72.0468 164.746 72.3687 166.98 72.8011 169.462ZM73.3353 180.308C73.0016 179.872 72.782 179.072 72.8472 178.531C72.9119 177.991 73.1845 178.348 73.453 179.325C73.7214 180.302 73.6684 180.745 73.3353 180.308ZM38.5511 209.933C42.061 222.808 42.7999 226.317 42.2032 227.264C41.5765 228.259 41.4724 228.216 41.5643 227.002C41.6246 226.205 39.7738 218.631 37.4515 210.172C32.9662 193.835 31.6279 187.139 33.1152 188.474C33.5971 188.906 34.0273 190.279 34.071 191.525C34.1147 192.771 36.1312 201.055 38.5511 209.933Z" fill="#0A260A"/>
</svg>
