<svg width="431" height="681" viewBox="0 0 431 681" fill="none" xmlns="http://www.w3.org/2000/svg">
<path fill-rule="evenodd" clip-rule="evenodd" d="M441.147 887.319C445.122 883.438 440.403 874.69 430.878 868.285C427.366 865.923 426.377 864.747 425.101 861.418C422.752 855.286 422.997 854.989 427.959 857.953C430.376 859.396 437.08 862.816 442.855 865.55C448.63 868.285 453.361 870.807 453.368 871.154C453.399 872.75 457.033 876.512 460.84 878.889C465.151 881.582 471.581 882.854 475.735 881.836C477.662 881.363 479.375 878.631 479.375 876.029C479.375 870.606 462.948 865.066 455.296 867.908C453.727 868.49 452.507 868.312 449.702 867.094C444.231 864.715 433.977 859.608 433.136 858.843C432.054 857.858 443.141 858.898 447.099 860.152C454.965 862.645 464.978 860.707 465.465 856.597C465.807 853.714 463.221 852.232 457.853 852.232C454.323 852.232 452.496 852.744 448.275 854.916C443.308 857.471 442.796 857.578 437.559 857.169C434.534 856.931 430.353 856.104 428.267 855.33C424.334 853.871 417.188 848.868 413.289 844.844L411.044 842.527L417.216 842.527C421.204 842.527 424.163 842.922 425.578 843.642C431.733 846.777 444.205 843.014 444.205 838.023C444.205 832.719 434.696 833.112 426.283 838.764C423.323 840.752 422.259 841.032 417.691 841.022C414.823 841.016 411.619 840.588 410.572 840.071C406.499 838.059 400.324 825.415 396.833 811.941C395.719 807.642 394.612 804.451 394.374 804.848C393.619 806.109 396.658 818.47 399.382 825.213C403.155 834.554 403.12 834.358 403.04 845.711C402.976 854.851 403.163 856.486 404.609 859.49C406.581 863.586 410.816 867.909 412.857 867.909C414.972 867.909 416.121 865.325 415.528 861.902C415.071 859.26 408.946 848.368 406.264 845.428C405.03 844.076 403.776 835.701 404.991 836.928C405.397 837.338 407.333 839.747 409.292 842.28C411.251 844.814 414.691 848.42 416.938 850.293C420.468 853.238 421.305 854.486 423.111 859.498C424.26 862.687 425.486 867.816 425.836 870.895C426.558 877.25 427.254 879.312 430.095 883.503C432.031 886.36 435.866 888.812 438.395 888.812C439.068 888.812 440.306 888.141 441.147 887.319ZM127.566 887.546C132.238 885.298 135.768 878.205 136.493 869.61C136.717 866.944 137.389 863.841 137.985 862.715C138.581 861.59 139.466 859.127 139.952 857.242C140.658 854.507 141.715 853.067 145.185 850.121C147.576 848.09 151.049 844.458 152.902 842.051C154.755 839.643 156.587 837.338 156.973 836.928C158.319 835.499 156.601 843.597 155.131 845.614C154.33 846.711 153.675 847.776 153.675 847.979C153.675 848.182 152.483 850.078 151.027 852.191C147.395 857.461 145.477 863.517 146.645 866.021C149.209 871.517 157.593 863.323 159.06 853.888C159.338 852.097 159.289 849.227 158.951 847.511C158.319 844.301 159.474 831.555 160.519 830.209C161.778 828.588 166.097 815.719 167.119 810.546C168.405 804.04 168.381 804.453 167.471 804.453C167.07 804.453 166.519 805.712 166.247 807.252C164.435 817.488 160.195 828.333 154.599 837.051C152.372 840.518 150.94 841.034 143.521 841.034C139.716 841.034 138.448 840.689 136.263 839.062C128.683 833.417 117.741 832.777 117.741 837.979C117.741 842.989 129.727 846.662 136.357 843.684C137.682 843.089 141.4 842.501 144.619 842.377C151.461 842.115 151.525 842.521 145.471 847.783C139.745 852.76 135.58 855.042 129.931 856.296C122.27 857.998 118.349 857.815 115.009 855.602C107.455 850.597 95.8435 851.22 96.4812 856.597C96.8237 859.49 100.791 861.188 107.213 861.189C110.043 861.19 113.655 860.715 115.241 860.134C118.67 858.877 129.511 857.869 128.881 858.866C128.644 859.24 124.406 861.472 119.464 863.826C113.266 866.777 109.766 868.032 108.184 867.871C97.6601 866.794 88.9366 868.528 84.8615 872.507C82.0686 875.234 81.9317 877.804 84.4487 880.261C88.9503 884.657 101.291 881.092 106.881 873.781C109.351 870.55 110.921 869.522 119.968 865.213C125.623 862.521 132.08 859.175 134.317 857.777C139.069 854.809 139.47 855.455 136.786 861.758C135.62 864.499 134.227 866.17 131.625 867.947C125.799 871.928 123.011 874.784 121.095 878.734C118.879 883.304 118.808 885.375 120.799 887.319C122.646 889.122 124.183 889.174 127.566 887.546ZM312.319 794.934C312.019 794.215 310.783 790.689 309.574 787.098C308.364 783.506 306.357 778.6 305.114 776.195C302.465 771.07 296.523 765.533 291.772 763.762C288.94 762.706 287.967 761.714 284.952 756.802C283.018 753.652 280.764 749.387 279.945 747.323C278.364 743.341 275.724 732.028 274.854 725.506C274.208 720.667 275.04 720.469 279.152 724.484C281.215 726.499 282.122 728.036 282.125 729.523C282.127 730.701 282.504 732.983 282.962 734.595C284.134 738.716 291.266 745.455 296.264 747.163C300.53 748.621 306.586 748.907 306.586 747.65C306.586 746.785 300.635 737.531 296.637 732.177C293.688 728.23 290.216 726.072 286.808 726.068C285.017 726.066 283.405 725.355 281.512 723.733C280.015 722.449 277.724 720.964 276.42 720.433C274.267 719.554 273.864 718.816 272.009 712.372C270.886 708.47 268.745 702.864 267.251 699.912C265.757 696.961 264.535 694.416 264.535 694.255C264.535 693.587 267.058 694.041 269.113 695.079C271.049 696.057 271.27 696.503 270.906 698.696C270.562 700.768 270.914 701.669 272.958 703.942C277.741 709.262 294.353 715.136 294.353 711.508C294.353 709.925 290.578 703.776 286.947 699.446C283.566 695.412 280.098 693.838 275.033 694.038C272.834 694.125 270.065 693.808 268.882 693.334C267.698 692.859 265.806 692.463 264.677 692.453C263.168 692.44 262.017 691.626 260.33 689.376C256.05 683.666 244.6 675.072 243.528 676.764C243.281 677.156 244.149 678.018 245.46 678.679C248.98 680.457 259.774 690.796 262.026 694.548C263.788 697.482 263.932 698.307 263.494 702.908C262.811 710.095 262.206 711.234 257.952 713.367C249.532 717.588 246.457 727.777 250.121 739.317C251.01 742.113 251.898 742.383 253.086 740.215C253.546 739.375 255.919 736.537 258.359 733.909C265.314 726.416 266.831 721.603 264.048 715.876C263.069 713.862 262.979 712.907 263.635 711.5C264.096 710.511 264.704 708.008 264.986 705.939C265.267 703.869 265.772 702.176 266.108 702.176C268.003 702.176 273.151 721.859 273.235 729.425C273.311 736.257 272.029 739.821 269.063 741.02C265.778 742.349 261.325 747.62 259.654 752.157C257.323 758.486 258.574 771.605 261.508 771.605C262.742 771.605 272.526 756.186 273.422 752.83C274.285 749.596 273.945 745.42 272.654 743.38C272.383 742.952 272.482 741.821 272.874 740.866C273.265 739.911 273.816 738.458 274.098 737.637C274.472 736.545 275.106 737.807 276.458 742.336C278.461 749.048 281.011 754.428 284.638 759.593C286.61 762.401 286.927 763.5 286.795 767.059C286.427 777.024 292.618 785.573 305.866 793.396C311.183 796.534 313.188 797.013 312.319 794.934ZM31.3466 795.95C31.3466 794.633 24.7302 777.296 23.328 774.939C20.9135 770.88 14.5487 765.181 10.7886 763.712C7.45436 762.41 5.1316 759.841 2.05659 754.061C0.28053 750.721 0.0672121 750.545 0.0358399 752.392C0.0152099 753.576 1.22017 756.252 2.85939 758.663C5.47413 762.508 5.72261 763.322 5.7555 768.17C5.79908 774.519 8.04841 779.4 13.6036 785.199C18.2277 790.027 31.3466 797.976 31.3466 795.95ZM548.406 763.928C551.179 759.706 553.812 755.317 554.257 754.174C555.308 751.476 555.292 746.537 554.227 744.593C553.609 743.467 553.635 742.199 554.326 739.79C554.842 737.99 555.478 736.519 555.738 736.522C555.999 736.525 556.781 738.793 557.476 741.562C558.172 744.33 559.463 748.107 560.346 749.955L561.952 753.314L561.631 750.701C561.454 749.264 560.603 745.737 559.741 742.863C558.878 739.989 557.517 734.026 556.715 729.612C555.096 720.692 555.392 720.066 559.594 723.519C561.336 724.95 561.946 725.158 561.946 724.319C561.946 722.879 558.361 720.093 556.506 720.093C555.585 720.093 554.939 719.38 554.647 718.04C553.407 712.363 550.077 702.82 547.999 698.99C546.714 696.622 545.872 694.481 546.126 694.231C546.382 693.983 547.89 694.285 549.478 694.904C552.137 695.939 552.348 696.237 552.136 698.646C551.87 701.66 554.756 705.449 559.324 708.08L562 709.622L561.782 701.98L561.564 694.337L556.498 694.226C553.711 694.165 550.723 693.745 549.858 693.293C548.993 692.84 547.402 692.471 546.321 692.471C544.869 692.471 542.918 690.991 538.828 686.787C531.728 679.488 525.202 675.053 524.108 676.783C523.874 677.152 524.863 678 526.305 678.669C530.002 680.381 537.498 687.191 541.724 692.675C545.265 697.269 545.302 697.376 544.879 701.803C544.207 708.837 542.848 712.017 540.157 712.85C534.491 714.605 529.855 721.953 529.843 729.202C529.834 734.277 531.152 740.78 532.335 741.494C532.8 741.775 533.546 741.4 533.993 740.662C534.439 739.924 537.005 736.765 539.695 733.643C546.746 725.457 548.079 721.382 545.464 716.001C544.385 713.782 544.385 713.126 545.464 709.062C546.119 706.593 546.655 703.799 546.655 702.852C546.655 697.62 551.108 709.81 553.501 721.594C554.792 727.949 554.95 730.189 554.332 733.373C553.479 737.762 552.34 740.25 551.183 740.25C549.408 740.25 542.895 747.252 541.263 750.915C538.497 757.125 539.288 771.605 542.394 771.605C542.928 771.605 545.634 768.151 548.406 763.928ZM25.2302 747.458C25.2302 746.907 22.5978 742.573 19.3814 737.828C13.1304 728.608 10.089 726.065 5.30824 726.065C3.92665 726.065 2.16743 725.509 1.39827 724.83C-0.231736 723.39 -0.237839 723.441 0.814162 729.798C2.16975 737.991 7.32283 744.271 15.1152 747.224C19.1566 748.756 25.2302 748.897 25.2302 747.458ZM13.3039 712.001C13.9981 710.905 8.17226 702.005 4.20497 698.1L0.38222 694.337L0.160539 701.373C0.0389569 705.244 0.0932168 708.802 0.281266 709.281C0.64827 710.214 8.58284 712.628 11.2825 712.628C12.1762 712.628 13.086 712.345 13.3039 712.001ZM446.881 633.524C451.336 631.713 455.398 624.051 456.14 616.06C456.375 613.536 457.188 609.959 457.948 608.111C458.708 606.264 459.583 603.589 459.892 602.167C460.305 600.269 461.974 598.196 466.174 594.366C469.32 591.497 473.093 587.454 474.559 585.38L477.223 581.609L476.883 585.342C476.617 588.267 475.604 590.528 472.199 595.793C467.387 603.236 466.127 606.458 466.505 610.351C466.717 612.528 467.09 613.001 468.738 613.188C470.244 613.359 471.402 612.672 473.591 610.306C478.28 605.238 478.798 603.254 478.94 589.821C479.045 579.85 479.297 577.451 480.463 575.307C482.438 571.673 485.368 563.089 486.674 557.111C487.948 551.277 488.04 549.881 487.153 549.881C486.805 549.881 486.114 552.034 485.617 554.667C483.266 567.127 475.33 584.236 471.189 585.773C470.17 586.152 466.846 586.461 463.802 586.461C458.941 586.461 457.902 586.204 455.251 584.342C451.264 581.542 446.386 579.742 442.779 579.742C436.713 579.742 435.598 585.112 441.022 588.205C444.598 590.245 453.167 590.779 456.473 589.169C458.116 588.369 460.941 587.954 464.746 587.954L470.525 587.954L466.731 591.721C458.969 599.427 451.345 602.885 442.122 602.885C439 602.885 437.1 602.353 433.873 600.575C425.991 596.231 415.47 597.048 416.061 601.958C416.612 606.528 427.101 608.62 435.031 605.742C438.412 604.514 448.793 603.496 448.793 604.391C448.793 604.865 439.997 609.259 432.839 612.363C429.255 613.916 428.394 614.032 426.037 613.272C418.98 610.998 406.036 614.865 402.994 620.157C401.357 623.006 402.972 626.43 406.489 627.563C413.018 629.667 424.299 624.24 428.602 616.926C428.984 616.276 433.598 613.755 438.856 611.322C444.114 608.89 450.399 605.661 452.823 604.146C455.249 602.632 457.556 601.392 457.951 601.392C458.346 601.392 457.915 603.443 456.991 605.948C455.722 609.393 454.563 611.064 452.243 612.795C443.37 619.418 439.618 624.443 439.618 629.705C439.618 633.75 442.542 635.288 446.881 633.524ZM129.401 633.434C131.22 632.399 131.159 627.52 129.282 623.928C127.676 620.854 121.812 615.184 117.924 612.947C116.18 611.943 114.993 610.384 113.976 607.759C113.175 605.694 112.282 603.417 111.991 602.699C111.241 600.849 112.6 601.066 115.987 603.338C117.583 604.409 123.877 607.653 129.974 610.548C136.071 613.443 141.191 616.142 141.351 616.546C141.981 618.137 147.321 623.348 150.036 625.021C156.909 629.259 165.744 628.957 167.36 624.43C168.429 621.438 167.237 618.867 163.705 616.546C158.835 613.345 149.135 611.72 144.266 613.289C141.646 614.134 141.032 613.952 131.539 609.536C126.053 606.984 121.564 604.696 121.563 604.451C121.562 603.606 133.424 604.929 137.237 606.199C143.466 608.274 152.63 606.623 153.982 603.181C155.398 599.577 151.392 597.218 144.953 597.867C141.032 598.263 134.717 600.773 133.682 602.349C132.866 603.592 120.903 602.474 116.127 600.708C113.049 599.571 110.132 597.554 105.806 593.574L99.7741 588.025L105.582 587.99C109.476 587.966 112.211 588.355 113.883 589.169C115.736 590.072 117.712 590.29 121.584 590.019C127.661 589.595 131.53 587.719 132.63 584.664C133.274 582.876 133.123 582.367 131.594 581.157C128.262 578.523 121.833 579.675 115.274 584.081C112.005 586.277 111.252 586.461 105.527 586.461C100.007 586.461 99.1212 586.265 97.4981 584.68C93.4322 580.71 86.6383 564.728 84.74 554.667C83.6528 548.905 82.1382 548.138 82.8982 553.735C83.4907 558.096 87.4763 570.758 89.3219 574.143C91.0124 577.244 92.3817 588.323 91.5369 592.06C90.114 598.352 92.4902 606.263 97.222 610.989C98.9492 612.714 100.218 613.347 101.623 613.188C103.313 612.996 103.631 612.55 103.839 610.086C104.15 606.396 102.569 602.582 97.4185 594.593C94.0369 589.347 93.2754 587.565 93.2754 584.897L93.2754 581.629L95.8688 585.389C97.2955 587.458 101.08 591.536 104.279 594.454C107.479 597.371 110.096 600.32 110.096 601.008C110.096 601.695 110.92 604.331 111.927 606.864C112.934 609.397 113.957 613.533 114.2 616.055C115.365 628.137 123.121 637.006 129.401 633.434ZM531.4 518.371C539.093 513.749 543.918 509.186 547.025 503.595C548.92 500.187 549.318 498.588 549.369 494.19C549.425 489.317 549.683 488.499 552.577 484.026C556.421 478.082 557.669 475.227 560.076 466.868C561.31 462.584 561.917 458.648 561.858 455.296C561.809 452.503 561.624 450.889 561.447 451.71C561.27 452.531 560.419 456.73 559.556 461.042C556.924 474.185 549.828 488.029 545.214 489.018C541.984 489.711 534.886 495.6 532.51 499.557C529.793 504.085 523.588 520.936 524.36 521.69C524.678 522 527.846 520.506 531.4 518.371ZM312.123 521.829C312.647 521.317 307.386 505.783 305.438 502.09C302.307 496.155 295.719 490.149 291.1 489.016C286.415 487.868 278.585 472.338 276.431 459.922C276.218 458.69 275.69 455.873 275.259 453.661C273.741 445.874 274.277 445.313 279.03 449.728C281.6 452.115 282.123 453.089 282.137 455.513C282.187 464.093 291.515 472.768 302.236 474.203C306.928 474.83 307.532 473.443 304.461 469.098C303.216 467.336 300.583 463.467 298.611 460.5C294.354 454.096 291.926 452.238 286.964 451.587C284.184 451.222 282.434 450.389 279.91 448.233C278.063 446.655 275.997 445.364 275.316 445.364C274.401 445.364 273.635 443.664 272.371 438.832C271.432 435.239 269.254 429.502 267.532 426.082C265.811 422.662 264.6 419.67 264.843 419.432C265.086 419.195 266.636 419.596 268.288 420.324C271.107 421.565 271.266 421.805 270.866 424.211C270.479 426.538 270.794 427.109 274.271 430.381C278.467 434.331 284.666 437.095 290.721 437.716C293.483 437.999 294.351 437.842 294.346 437.06C294.334 435.299 290.103 428.721 286.387 424.686C282.408 420.365 278.927 418.856 274.324 419.459C272.529 419.694 270.239 419.425 268.704 418.799C267.279 418.218 265.45 417.742 264.639 417.742C263.804 417.742 260.724 415.277 257.542 412.063C251.596 406.056 246.32 402.064 244.328 402.064C242.348 402.064 242.967 403.124 245.613 404.262C248.494 405.503 259.859 416.337 262.183 420.06C263.989 422.954 264.22 428.656 262.754 434.166C262.007 436.97 261.453 437.654 259.395 438.303C251.317 440.853 246.938 450.611 249.178 461.075C250.481 467.162 251.196 467.875 253.27 465.148C254.205 463.916 256.81 460.948 259.056 458.551C261.301 456.155 263.626 453.058 264.22 451.669C265.611 448.417 265.59 444.059 264.17 441.4C263.185 439.557 263.186 438.791 264.174 435.084C264.794 432.764 265.3 430.097 265.3 429.157C265.3 426.241 266.651 427.267 268.207 431.366C269.818 435.61 272.54 446.622 273.351 452.181C273.907 455.987 272.576 463.669 271.166 464.79C270.672 465.182 268.724 466.614 266.834 467.972C264.506 469.646 262.573 471.994 260.836 475.26C258.349 479.933 258.281 480.299 258.563 487.357C258.793 493.084 259.145 494.914 260.214 495.943C261.51 497.189 261.651 497.157 263.246 495.258C267.068 490.707 272.513 481.536 273.421 478.12C274.217 475.124 274.21 473.858 273.382 471.171C272.602 468.642 272.566 467.269 273.227 465.21C273.699 463.739 274.293 462.535 274.548 462.535C274.803 462.535 275.639 464.803 276.405 467.574C278.232 474.185 280.1 478.269 284.021 484.22C287.035 488.794 287.218 489.378 286.886 493.295C286.257 500.697 291.796 509.81 300.341 515.433C306.824 519.698 311.631 522.308 312.123 521.829ZM13.6281 496.66C14.0785 496.13 14.8001 494.199 15.2322 492.367C17.7077 481.877 13.846 471.876 5.28074 466.597C0.397499 463.587 -0.399925 457.488 2.37773 444.388C3.90989 437.16 6.4337 429.252 7.61412 427.981C7.91307 427.658 8.83818 430.109 9.66923 433.428C11.0271 438.848 11.0638 439.624 10.0309 441.064C8.38407 443.359 8.61796 448.924 10.5095 452.456C11.3887 454.099 13.8025 457.29 15.8721 459.549C17.9425 461.807 20.0473 464.411 20.5489 465.334C22.9083 469.678 25.2302 464.597 25.2302 455.088C25.2302 446.698 22.1131 441.404 15.5235 438.603C12.849 437.466 12.1793 436.744 11.4927 434.256C11.0401 432.614 10.6402 429.221 10.6043 426.715C10.5485 422.862 10.8742 421.687 12.7237 419.08C15.8622 414.653 23.1025 407.776 27.6432 404.906C30.4124 403.156 31.1616 402.363 30.2197 402.181C28.2219 401.795 21.0901 406.938 16.0265 412.416C12.2496 416.502 10.888 417.452 7.48649 418.367C5.26164 418.966 2.66594 419.442 1.7202 419.424C0.0817681 419.395 0.000713425 419.665 0.0167652 425.1L0.0336104 430.807L1.50767 428.94C2.31883 427.914 3.08494 425.762 3.2111 424.158C3.41984 421.508 3.71263 421.151 6.43217 420.236C8.0775 419.682 9.53471 419.337 9.67002 419.47C9.80534 419.602 8.5438 422.375 6.86564 425.632C2.19651 434.695 0.00455647 443.902 0.00223619 454.461C0.000709877 459.259 0.373817 464.13 0.830238 465.286C1.44114 466.833 1.41135 468.41 0.718665 471.264C-0.609399 476.729 0.594824 480.266 7.02164 489.783C9.93308 494.094 12.427 497.622 12.5624 497.622C12.6985 497.622 13.1786 497.189 13.6281 496.66ZM538.809 473.042C544.255 471.23 548.496 468.217 551.189 464.246C553.361 461.045 553.655 460.191 554.656 454.193C555.092 451.578 559.309 446.857 561.209 446.857C561.615 446.857 561.947 446.521 561.947 446.111C561.947 444.515 559.472 445.496 556.301 448.35C554.049 450.377 552.274 451.342 550.775 451.353C545.222 451.394 540.38 455.31 535.563 463.655C534.377 465.708 532.574 468.496 531.554 469.85C528.129 474.401 530.969 475.651 538.809 473.042ZM552.455 436.132C555.014 435.203 558.196 433.686 559.527 432.761C561.895 431.114 561.947 430.953 561.947 425.157C561.947 419.318 561.92 419.235 560.011 419.235C556.944 419.235 553.384 421.063 550.366 424.188C547.007 427.664 542.068 435.138 542.068 436.743C542.068 438.447 546.851 438.166 552.455 436.132ZM439.618 339.548C445.933 337.151 441.749 326.769 431.765 320.062C429.814 318.751 427.691 316.944 427.046 316.046C425.649 314.098 423.25 307.309 423.777 306.795C423.981 306.595 425.478 307.324 427.105 308.414C428.731 309.504 435.308 312.915 441.721 315.994C448.133 319.073 453.38 321.893 453.38 322.26C453.38 323.751 459.266 329.145 462.889 330.972C468.295 333.7 475.762 333.837 477.911 331.246C480.785 327.786 479.233 324.049 473.781 321.294C468.956 318.856 461.997 317.768 456.809 318.641C453.898 319.131 451.922 319.12 450.82 318.608C440.071 313.619 434.16 310.675 433.822 310.142C433.029 308.89 443.105 309.442 445.808 310.799C449.578 312.692 460.603 312.638 463.51 310.713C465.003 309.725 465.613 308.685 465.613 307.129C465.613 305.305 465.136 304.743 462.768 303.777C459.013 302.245 454.325 302.889 448.316 305.762C440.587 309.458 430.472 308.592 422.763 303.577C419.771 301.63 411.33 294.266 411.33 293.603C411.33 292.931 423.581 293.772 425.059 294.546C427.179 295.653 435.538 295.65 438.535 294.541C444.348 292.39 446.053 287.774 441.692 285.995C438.281 284.603 433.404 285.676 427.644 289.085C422.42 292.175 416.575 293.046 411.731 291.455C409.201 290.623 408.207 289.643 405.795 285.603C401.941 279.147 398.594 270.536 396.632 262.023C394.982 254.864 393.5 252.893 394.558 259.265C395.578 265.406 396.688 269.353 399.132 275.525C402.947 285.164 403.01 285.504 402.998 296.428C402.988 305.932 403.153 307.218 404.819 310.613C406.981 315.016 407.969 316.262 410.648 317.965C414.577 320.46 416.733 317.466 415.148 311.716C414.661 309.954 412.216 305.338 409.713 301.458C406.413 296.343 405.049 293.451 404.751 290.937L404.339 287.47L405.888 289.336C411.318 295.878 412.885 297.553 416.669 300.861C420.336 304.065 421.166 305.333 423.03 310.566C424.208 313.877 425.308 318.097 425.475 319.944C425.987 325.635 426.675 328.31 428.557 331.938C430.24 335.181 434.311 339.355 435.791 339.355C436.145 339.355 436.893 339.496 437.453 339.669C438.013 339.841 438.987 339.787 439.618 339.548ZM126.548 339.055C131.808 336.831 135.95 329.265 136.489 320.893C136.768 316.572 140.6 304.895 142.138 303.679C145.897 300.708 152.395 293.962 154.231 291.123C155.397 289.32 156.649 287.845 157.012 287.844C158.653 287.841 156.411 295.037 153.29 299.792C147.379 308.796 145.372 313.76 146.384 316.872C147.771 321.14 153.33 318.221 156.755 311.43C159.197 306.586 159.254 306.171 159.027 294.935C158.857 286.575 159.234 284.566 162.454 276.645C166.248 267.311 168.884 256.242 167.51 255.412C167.096 255.162 166.538 256.534 166.242 258.527C164.767 268.467 156.199 288.176 152.255 290.699C150.86 291.591 148.636 291.949 144.475 291.949C139.226 291.949 138.36 291.735 135.749 289.79C129.923 285.451 120.319 284.018 118.275 287.184C115.733 291.119 122.124 295.493 130.419 295.494C132.976 295.495 135.807 295.11 136.708 294.639C137.61 294.168 141.091 293.674 144.443 293.543L150.539 293.303L149.24 294.898C147.684 296.808 142.846 301.022 139.149 303.688C135.506 306.313 129.204 308 123.032 308C118.83 308 117.121 307.602 113.629 305.808C111.283 304.603 107.833 303.393 105.964 303.119C96.8421 301.783 92.543 308.417 100.587 311.417C104.621 312.921 113.856 312.433 116.784 310.56C118.051 309.75 120.118 309.491 124.072 309.647L129.592 309.866L119.939 314.478L110.288 319.09L103.119 318.69C96.901 318.344 95.3451 318.516 91.3733 319.984C88.8556 320.916 85.805 322.645 84.594 323.827C82.7644 325.614 82.4754 326.379 82.8814 328.363C83.6742 332.231 85.045 333.016 90.9061 332.954C95.1081 332.91 96.7931 332.515 99.5914 330.913C102.799 329.078 109.331 322.707 109.331 321.414C109.331 321.105 110.628 320.346 112.213 319.727C117.902 317.504 128.154 312.479 133.032 309.521C135.765 307.865 138.123 306.862 138.271 307.295C138.418 307.727 137.779 310.067 136.849 312.494C135.431 316.198 134.567 317.278 131.478 319.214C122.652 324.744 117.137 333.944 120.253 337.939C121.654 339.736 123.968 340.146 126.548 339.055ZM312.107 247.115C312.676 246.559 307.826 232.577 305.348 227.63C302.801 222.548 297.552 217.447 292.434 215.083C289.129 213.556 287.842 212.363 285.376 208.537C280.092 200.338 276.593 189.571 274.783 175.94L274.248 171.913L276.735 173.327C280.439 175.433 282.12 177.895 282.12 181.212C282.12 189.855 291.679 198.423 302.572 199.546C306.043 199.904 306.586 199.783 306.586 198.656C306.586 197.939 305.613 196.128 304.422 194.632C303.232 193.136 301.187 190.064 299.875 187.806C295.607 180.452 290.497 176.629 284.918 176.612C284.143 176.61 282.088 175.419 280.351 173.967C278.613 172.515 276.447 171.144 275.537 170.921C274.177 170.587 273.56 169.299 272.082 163.702C271.093 159.954 269.018 154.355 267.471 151.259C265.925 148.163 264.801 145.491 264.975 145.321C265.148 145.152 266.658 145.414 268.329 145.903C271.124 146.72 271.334 146.962 270.933 148.918C269.87 154.108 276.429 159.615 287.068 162.465C295.714 164.781 296.191 163.871 290.663 155.602C285.043 147.197 279.776 143.732 274.254 144.811C272.871 145.081 270.383 144.79 268.299 144.113C266.331 143.475 264.421 143.041 264.054 143.148C263.688 143.256 260.292 140.327 256.508 136.641C249.668 129.98 244.503 126.454 243.349 127.657C243.017 128.003 243.202 128.445 243.759 128.638C246.366 129.544 256.3 138.24 259.833 142.708C263.324 147.123 263.771 148.098 263.771 151.287C263.771 153.265 263.401 156.57 262.948 158.631C262.166 162.193 261.913 162.479 257.806 164.464C254.053 166.278 253.184 167.131 251.175 170.967C249.195 174.746 248.864 176.196 248.879 181.034C248.897 187.244 250.286 192.285 251.98 192.285C252.578 192.285 253.067 191.981 253.067 191.608C253.067 191.235 255.354 188.304 258.148 185.093C260.943 181.882 263.695 178.166 264.265 176.835C265.624 173.658 265.578 169.594 264.153 166.903C263.133 164.977 263.133 164.259 264.153 160.437C264.784 158.072 265.3 155.368 265.3 154.428C265.3 148.391 269.686 159.745 272.334 172.636C273.841 179.97 273.937 181.509 273.131 185.327C272.525 188.199 271.664 190.052 270.591 190.792C266.375 193.703 261.963 198.098 260.512 200.837C257.575 206.372 258.027 221.671 261.156 222.67C262.073 222.963 271.395 209.616 272.731 206.096C274.221 202.169 274.375 199.457 273.281 196.391C272.343 193.763 272.367 193.017 273.474 190.169L274.732 186.932L276.134 192.205C277.878 198.76 280.252 204.036 284.061 209.829C286.743 213.907 287.011 214.776 287.048 219.534C287.121 228.708 292.155 235.781 303.888 243.195C310.873 247.609 311.362 247.842 312.107 247.115ZM31.3467 246.855C31.3467 245.214 25.6362 230.322 23.4955 226.383C20.7958 221.414 16.5617 217.504 11.2098 215.038C7.3443 213.256 6.70361 212.575 2.5437 205.83C0.487 202.494 5.01894e-07 202.054 3.69581e-07 203.531C2.79538e-07 204.536 1.28979 207.343 2.86707 209.769C5.43213 213.717 5.73413 214.699 5.73413 219.097C5.73413 228.484 12.1808 237.249 24.0933 244.057C30.342 247.629 31.3467 248.016 31.3467 246.855ZM543.749 221.584C545.701 219.369 552.164 209.244 553.636 206.096C555.196 202.758 555.456 198.612 554.292 195.622C553.523 193.648 554.659 187.806 555.811 187.806C556.089 187.806 556.925 190.242 557.67 193.218C558.417 196.195 559.657 199.975 560.43 201.617C561.639 204.191 561.839 204.346 561.871 202.737C561.892 201.71 561.218 198.855 560.373 196.391C558.581 191.166 555.628 175.749 555.974 173.429C556.2 171.919 556.362 171.964 559.079 174.299C561.483 176.364 561.947 176.537 561.947 175.371C561.947 173.978 560.106 172.45 556.666 170.99C555.164 170.352 554.565 169.132 553.413 164.367C552.637 161.154 550.627 155.661 548.946 152.159C547.266 148.658 545.891 145.671 545.891 145.523C545.891 144.883 548.428 145.337 550.39 146.328C552.172 147.228 552.465 147.778 552.177 149.689C551.973 151.044 552.331 152.715 553.056 153.795C554.158 155.439 560.439 160.184 561.511 160.184C561.751 160.184 561.947 156.839 561.947 152.752L561.947 145.321L559.276 144.831C557.806 144.562 555.816 144.535 554.85 144.772C553.885 145.009 551.448 144.717 549.435 144.126C547.422 143.535 545.518 143.126 545.202 143.218C544.886 143.311 541.902 140.676 538.57 137.362C532.334 131.162 525.954 126.822 524.428 127.742C523.901 128.061 524.564 128.736 526.126 129.471C529.496 131.059 539.877 140.769 542.89 145.153C545.08 148.337 545.233 148.968 544.835 153.091C544.051 161.194 543.335 162.574 538.83 164.663C533.026 167.354 530.448 171.686 530.041 179.436C529.728 185.387 531.087 191.912 532.639 191.912C533.093 191.912 534.883 190.232 536.618 188.179C538.352 186.126 541.135 182.838 542.801 180.872C546.35 176.687 547.285 173.068 545.923 168.799C545.393 167.14 544.951 164.943 544.939 163.916C544.905 160.787 547.11 152.371 547.714 153.326C549.133 155.567 552.163 165.69 553.58 172.926C555.024 180.296 555.057 181.253 554.015 185.656C553.348 188.474 552.351 190.723 551.573 191.165C542.024 196.584 537.785 205.594 539.745 216.306C540.79 222.011 541.985 223.587 543.749 221.584ZM25.2302 198.816C25.2302 197.647 18.3622 186.561 14.8614 182.079C12.5219 179.084 9.69983 177.565 5.24097 176.9C3.40985 176.627 1.48242 176.073 0.95795 175.669C-0.256894 174.734 0.367007 180.542 2.04212 185.754C4.23407 192.575 12.7229 198.699 21.1651 199.55C24.4894 199.885 25.2302 199.751 25.2302 198.816ZM13.3544 163.21C14.4615 161.46 3.00007 145.999 0.595587 145.999C0.268316 145.999 5.22483e-06 149.346 4.85839e-06 153.436L4.19199e-06 160.873L3.88312 161.998C10.0631 163.79 12.768 164.136 13.3544 163.21ZM445.734 84.99C448.565 83.9523 451.269 81.3939 452.93 78.1845C454.785 74.5981 456.5 67.9128 456.407 64.6257C456.379 63.5992 457.377 59.9412 458.627 56.4966C460.681 50.8362 461.37 49.8188 465.797 45.9181C468.491 43.5448 472.017 39.7277 473.632 37.4365C475.249 35.1454 476.729 33.2708 476.923 33.2708C477.117 33.2708 477.111 34.8669 476.91 36.8169C476.634 39.4918 475.562 41.8016 472.548 46.2189C467.104 54.198 465.322 59.5776 466.841 63.4447C468.078 66.5914 473.219 63.2715 476.654 57.1081C478.769 53.3133 478.837 52.8527 478.98 41.1827C479.105 30.9483 479.355 28.6661 480.666 25.8054C483.198 20.2831 485.474 13.5627 486.65 8.14062C487.933 2.23016 488.013 1.16931 487.173 1.16931C486.837 1.16931 486.119 3.26861 485.578 5.83526C482.756 19.2051 474.865 36.0144 470.901 37.0969C469.884 37.3746 466.811 37.6344 464.07 37.6755C459.901 37.7382 458.614 37.4366 456.191 35.8285C449.012 31.0648 441.23 29.5478 438.59 32.3966C436.87 34.251 436.999 35.7083 439.045 37.5269C443.065 41.1028 449.66 42.254 455.863 40.4638C460.087 39.2447 470.2 38.4339 470.2 39.3141C470.2 40.2696 461.004 48.151 457.648 50.0718C451.803 53.4164 438.514 55.3536 436.629 53.1364C434.968 51.1812 428.05 48.8251 423.865 48.7878C415.38 48.7139 412.932 54.4914 420.29 57.2229C423.084 58.2599 432.532 58.045 434.878 56.8908C436.013 56.3324 439.864 55.6642 443.436 55.4074L449.93 54.9393L447.32 56.4891C445.885 57.3417 441.758 59.4089 438.15 61.0826C431.667 64.0905 431.483 64.1271 422.416 64.2167C414.81 64.2913 412.636 64.5779 409.703 65.8941C404.607 68.1792 401.966 71.1363 402.501 73.9576C403.14 77.3342 405.474 78.8101 410.174 78.8101C416.617 78.8101 423.599 75.0685 427.387 69.5858C428.951 67.3223 431.256 65.8949 440.126 61.6978C446.082 58.8796 452.489 55.5433 454.364 54.2838C456.239 53.0237 457.963 52.1786 458.194 52.4048C458.623 52.8229 457.398 56.6213 455.641 60.3263C455.106 61.4521 452.332 64.039 449.474 66.0748C446.616 68.1114 443.36 71.1312 442.237 72.787C437.547 79.7082 439.695 87.2057 445.734 84.99ZM129.418 84.2233C130.203 83.3767 130.739 81.5947 130.739 79.8306C130.739 75.4991 127.227 70.5951 120.895 66.0837C116.766 63.1416 115.27 61.544 114.084 58.8042C112.163 54.3675 111.404 51.9344 111.941 51.9344C112.171 51.9344 114.338 53.1699 116.756 54.6802C119.173 56.1905 125.631 59.538 131.106 62.1188C139.039 65.859 141.434 67.3536 142.9 69.4813C146.802 75.1438 153.56 78.8101 160.097 78.8101C169.985 78.8101 170.77 70.8004 161.327 66.2718C157.5 64.4368 156.278 64.2457 147.941 64.1762L138.766 64.1002L130.165 60.08C125.434 57.8687 121.564 55.8232 121.564 55.5335C121.564 54.6803 132.397 55.7015 135.532 56.8504C137.118 57.4312 140.766 57.9068 143.638 57.9068C147.813 57.9068 149.382 57.5641 151.454 56.2009C155.78 53.3543 155.206 50.3838 150.062 48.9967C146.316 47.9867 140.343 49.226 135.849 51.9456C133.256 53.5141 131.219 54.1666 128.968 54.1479C123.842 54.1061 116.613 52.3054 112.793 50.1195C109.118 48.0166 99.4875 39.6045 100.156 39.0819C100.79 38.5877 112.512 39.765 116.385 40.7124C123.017 42.3346 133.032 38.7855 133.032 34.8132C133.032 32.6288 130.493 31.0312 127.022 31.0312C123.334 31.0312 119.703 32.3653 114.475 35.6411C110.98 37.8307 110.515 37.9225 104.621 37.5896C97.3123 37.176 97.2511 37.1237 92.1753 26.9251C88.7692 20.08 85.3241 10.0592 84.412 4.34212C84.133 2.5967 83.6054 1.16927 83.2385 1.16927C82.347 1.16927 82.4082 2.16445 83.6559 7.8882C84.8448 13.3462 87.2883 20.7199 89.4374 25.3335C91.254 29.2342 92.5201 40.2025 91.5522 43.6627C90.4275 47.6836 91.5445 53.5425 94.2755 57.9524C98.8858 65.3939 103.316 66.5988 103.839 60.5525C104.154 56.9027 102.546 53.1117 97.7168 46.1248C94.7075 41.7695 93.7036 39.5962 93.4337 36.8534C93.2395 34.8833 93.2388 33.2708 93.4314 33.2708C93.6249 33.2708 94.8971 34.9513 96.2603 37.0042C97.6227 39.058 101.293 42.9983 104.417 45.7605C107.541 48.5227 110.096 51.314 110.096 51.9635C110.096 52.613 110.956 55.2872 112.007 57.9068C113.058 60.5265 113.918 63.8784 113.918 65.3573C113.918 69.3953 116.039 76.5883 118.156 79.7253C121.495 84.6757 126.972 86.8631 129.418 84.2233ZM530.218 -29.8929C532.741 -31.3726 534.949 -32.7148 535.124 -32.8769C535.299 -33.0389 533.189 -33.1718 530.434 -33.1718C525.861 -33.1718 525.394 -33.0262 525.053 -31.4921C524.848 -30.5685 524.427 -29.2248 524.118 -28.5059C523.242 -26.4708 525.103 -26.8941 530.218 -29.8929ZM312.075 -27.5824C312.291 -27.7937 312.092 -29.1374 311.633 -30.5686L310.799 -33.1718L305.889 -33.1718C303.189 -33.1718 301.122 -33.0389 301.297 -32.8769C301.974 -32.2513 310.815 -27.2032 311.237 -27.2017C311.482 -27.2002 311.86 -27.3718 312.075 -27.5824Z" fill="#0A260A" fill-opacity="0.2"/>
</svg>
